<svg id="Outline" xmlns="http://www.w3.org/2000/svg" width="20" height="20" viewBox="0 0 100 100">
  <defs>
    <style>
      .cls-1 {
        fill: none;
      }
    </style>
  </defs>
  <g>
    <rect class="cls-1" width="80" height="80"/>
    <g>
      <path d="M20,36A16,16,0,1,1,36,20,16.01833,16.01833,0,0,1,20,36ZM20,6A14,14,0,1,0,34,20,14.01572,14.01572,0,0,0,20,6Z"/>
      <path d="M20,29a7.74227,7.74227,0,0,1-6.44287-3.44336,1.00025,1.00025,0,0,1,1.66211-1.11328,5.74818,5.74818,0,0,0,9.56152,0,1.00025,1.00025,0,0,1,1.66211,1.11328A7.74227,7.74227,0,0,1,20,29Z"/>
      <circle cx="25.5" cy="17.5" r="1.5"/>
      <circle cx="14.5" cy="17.5" r="1.5"/>
    </g>
  </g>
</svg>
